<svg width="60" height="60" viewBox="0 0 80 80" fill="none" xmlns="http://www.w3.org/2000/svg">
<circle cx="40" cy="40" r="40" fill="#57855E"/>
<path d="M44.2145 27.3596L41.4909 23.3317C41.1457 22.833 40.5703 22.5261 39.9565 22.5261H30.3662C29.7525 22.5261 29.2154 22.833 28.8318 23.2933L25.9164 27.398C25.5711 27.8967 24.9957 28.1652 24.3819 28.1652H15.2137C14.1779 28.1652 13.334 29.0091 13.334 30.0449V52.486C13.334 53.5218 14.1779 54.3657 15.2137 54.3657H55.4543C56.49 54.3657 57.334 53.5218 57.334 52.486V30.0449C57.334 29.0091 56.49 28.1652 55.4543 28.1652H45.749C45.1352 28.2035 44.5598 27.8967 44.2145 27.3596Z" fill="#57855E" stroke="white" stroke-width="2" stroke-miterlimit="10"/>
<path d="M51.1191 28.2033V27.0525C51.1191 26.3236 51.7329 25.7098 52.4618 25.7098C52.8454 25.7098 53.1906 25.8633 53.4208 26.0934C53.651 26.3236 53.8044 26.6689 53.8044 27.0525V28.1649" fill="white"/>
<path d="M38.2686 29.9056H32.3994C32.0925 29.9056 31.8623 29.6754 31.8623 29.3685V26.4147C31.8623 26.1079 32.0925 25.8777 32.3994 25.8777H38.2686C38.5755 25.8777 38.8056 26.1079 38.8056 26.4147V29.3685C38.8056 29.6371 38.5755 29.9056 38.2686 29.9056Z" stroke="white" stroke-width="2" stroke-miterlimit="10"/>
<path d="M35.5067 49.0332C39.9346 49.0332 43.5241 45.4436 43.5241 41.0157C43.5241 36.5878 39.9346 32.9983 35.5067 32.9983C31.0788 32.9983 27.4893 36.5878 27.4893 41.0157C27.4893 45.4436 31.0788 49.0332 35.5067 49.0332Z" stroke="white" stroke-width="2" stroke-miterlimit="10"/>
<path d="M54.5417 20.6666H53.8456L56.4912 13.3939H57.2015L59.8471 20.6666H59.151L56.8712 14.2568H56.8215L54.5417 20.6666ZM55.0424 17.879H58.6503V18.4756H55.0424V17.879ZM61.0935 20.6666V13.3939H63.4408C63.9569 13.3939 64.3878 13.4874 64.7334 13.6744C65.0814 13.8591 65.343 14.116 65.5182 14.445C65.6958 14.7717 65.7846 15.147 65.7846 15.5707C65.7846 15.9945 65.6958 16.3686 65.5182 16.6929C65.343 17.0172 65.0826 17.2706 64.737 17.4528C64.3913 17.6351 63.9628 17.7263 63.4515 17.7263H61.4522V17.119H63.4337C63.8125 17.119 64.1274 17.0563 64.3783 16.9308C64.6316 16.8054 64.8198 16.6266 64.9429 16.3946C65.0684 16.1626 65.1312 15.888 65.1312 15.5707C65.1312 15.2535 65.0684 14.9765 64.9429 14.7398C64.8175 14.5007 64.6281 14.316 64.3748 14.1858C64.1238 14.0556 63.8066 13.9905 63.4231 13.9905H61.7576V20.6666H61.0935ZM64.3002 17.3854L66.09 20.6666H65.3229L63.5509 17.3854H64.3002Z" fill="white"/>
</svg>
