<svg width="95" height="34" viewBox="0 0 95 34" fill="none" xmlns="http://www.w3.org/2000/svg">
<line x1="16.9707" y1="2.12132" x2="2.12146" y2="16.9706" stroke="black" stroke-width="3" stroke-linecap="round"/>
<line x1="1.5" y1="-1.5" x2="22.5" y2="-1.5" transform="matrix(-0.707107 -0.707107 -0.707107 0.707107 16.9707 33.9707)" stroke="black" stroke-width="3" stroke-linecap="round"/>
<path d="M36.8902 25V19.5811C36.8902 17.9407 38.2196 16.6074 39.8639 16.6074C41.5083 16.6074 42.8377 17.9368 42.8377 19.5811V25H47.4402V12.6579L39.7823 5L32 12.7784V25H36.8902Z" stroke="black" stroke-opacity="0.5" stroke-width="3" stroke-miterlimit="10"/>
<path d="M56.068 22V15.424H57.136V18.268H57.172L59.908 15.424H61.156V15.46L57.136 19.528V22H56.068ZM60.148 22V19.684C60.148 19.212 60.004 18.844 59.716 18.58C59.428 18.316 58.952 18.184 58.288 18.184L58.912 17.404C59.416 17.404 59.836 17.496 60.172 17.68C60.516 17.856 60.776 18.112 60.952 18.448C61.128 18.784 61.216 19.188 61.216 19.66V22H60.148ZM65.283 22.12C64.811 22.12 64.403 22.04 64.059 21.88C63.723 21.712 63.463 21.46 63.279 21.124C63.103 20.788 63.015 20.352 63.015 19.816V15.424H64.083V19.756C64.083 20.236 64.203 20.6 64.443 20.848C64.691 21.096 65.047 21.22 65.511 21.22C66.071 21.22 66.503 21.04 66.807 20.68C67.119 20.32 67.275 19.836 67.275 19.228V15.424H68.343V22H67.455L67.407 21.028H67.347C67.203 21.348 66.951 21.612 66.591 21.82C66.239 22.02 65.803 22.12 65.283 22.12ZM64.9863 14.38V13.852C65.1463 13.82 65.3103 13.776 65.4783 13.72C65.6463 13.656 65.7863 13.576 65.8983 13.48C66.0103 13.376 66.0663 13.252 66.0663 13.108C66.0663 13.012 66.0383 12.932 65.9823 12.868C65.9183 12.796 65.8223 12.76 65.6943 12.76C65.6143 12.76 65.5343 12.776 65.4543 12.808C65.3663 12.84 65.2903 12.868 65.2263 12.892L64.9863 12.232C65.1463 12.104 65.3263 12.02 65.5263 11.98C65.7183 11.94 65.8743 11.92 65.9943 11.92C66.3143 11.92 66.5663 12.008 66.7503 12.184C66.9263 12.36 67.0143 12.584 67.0143 12.856C67.0143 13.08 66.9583 13.276 66.8463 13.444C66.7263 13.604 66.5903 13.732 66.4383 13.828L66.3183 13.54H68.7063V14.38H64.9863ZM72.2343 22V17.332C72.2343 16.94 72.1423 16.652 71.9583 16.468C71.7823 16.284 71.4823 16.192 71.0583 16.192C70.7703 16.192 70.4983 16.232 70.2423 16.312C69.9943 16.384 69.7543 16.488 69.5223 16.624V15.664C69.6823 15.584 69.9103 15.504 70.2063 15.424C70.5023 15.344 70.8543 15.304 71.2623 15.304C71.6783 15.304 72.0383 15.364 72.3423 15.484C72.6463 15.604 72.8823 15.804 73.0503 16.084C73.2183 16.356 73.3023 16.72 73.3023 17.176V22H72.2343ZM75.3453 22V15.424H76.4133V18.268H76.4493L79.1853 15.424H80.4333V15.46L76.4133 19.528V22H75.3453ZM79.4253 22V19.684C79.4253 19.212 79.2813 18.844 78.9933 18.58C78.7053 18.316 78.2293 18.184 77.5653 18.184L78.1893 17.404C78.6933 17.404 79.1133 17.496 79.4493 17.68C79.7933 17.856 80.0533 18.112 80.2293 18.448C80.4053 18.784 80.4933 19.188 80.4933 19.66V22H79.4253ZM86.1443 22V17.62C86.1443 17.1 86.0243 16.732 85.7843 16.516C85.5523 16.292 85.1603 16.18 84.6083 16.18C84.2083 16.18 83.8243 16.236 83.4563 16.348C83.0963 16.452 82.7523 16.6 82.4243 16.792V15.796C82.6563 15.676 82.9683 15.564 83.3603 15.46C83.7603 15.356 84.2083 15.304 84.7043 15.304C85.1283 15.304 85.4963 15.352 85.8083 15.448C86.1203 15.536 86.3763 15.672 86.5763 15.856C86.7843 16.04 86.9403 16.276 87.0443 16.564C87.1483 16.844 87.2003 17.176 87.2003 17.56V22H86.1443ZM84.0803 22.12C83.3763 22.12 82.8363 21.96 82.4603 21.64C82.0923 21.312 81.9083 20.844 81.9083 20.236C81.9083 19.572 82.1483 19.06 82.6283 18.7C83.1163 18.34 83.9043 18.128 84.9923 18.064L86.3603 17.98V18.868L85.1363 18.952C84.3203 19.008 83.7563 19.136 83.4443 19.336C83.1403 19.536 82.9883 19.828 82.9883 20.212C82.9883 20.572 83.1003 20.836 83.3243 21.004C83.5563 21.172 83.8763 21.256 84.2843 21.256C84.4203 21.256 84.5443 21.248 84.6563 21.232C84.7683 21.208 84.8763 21.18 84.9803 21.148L85.1483 21.952C84.9963 22.008 84.8283 22.048 84.6443 22.072C84.4683 22.104 84.2803 22.12 84.0803 22.12ZM85.5017 14.38C85.1657 14.38 84.8977 14.332 84.6977 14.236C84.4977 14.14 84.3537 14.016 84.2657 13.864C84.1697 13.712 84.1217 13.552 84.1217 13.384C84.1217 13.264 84.1417 13.136 84.1817 13C84.2137 12.856 84.2577 12.74 84.3137 12.652L85.2137 12.808C85.1977 12.84 85.1817 12.896 85.1657 12.976C85.1497 13.048 85.1417 13.116 85.1417 13.18C85.1417 13.284 85.1737 13.376 85.2377 13.456C85.3017 13.528 85.4097 13.564 85.5617 13.564H88.5978V14.38H85.5017ZM89.0878 22V19.72C89.0878 19.216 89.1998 18.852 89.4238 18.628C89.6478 18.396 89.9318 18.236 90.2758 18.148L90.2878 18.112L88.9678 17.608V17.212C88.9678 16.884 89.0758 16.576 89.2918 16.288C89.5078 15.992 89.8158 15.756 90.2158 15.58C90.6238 15.396 91.1078 15.304 91.6678 15.304C92.1558 15.304 92.6078 15.384 93.0238 15.544C93.4398 15.696 93.7718 15.94 94.0198 16.276C94.2758 16.604 94.4038 17.036 94.4038 17.572V22H93.3358V17.68C93.3358 17.144 93.1718 16.764 92.8438 16.54C92.5238 16.308 92.1278 16.192 91.6558 16.192C91.1678 16.192 90.7798 16.296 90.4918 16.504C90.2038 16.704 90.0598 16.96 90.0598 17.272L91.3558 17.92L91.2598 18.496C90.9638 18.496 90.7038 18.596 90.4798 18.796C90.2638 18.988 90.1558 19.296 90.1558 19.72V22H89.0878Z" fill="#505455"/>
</svg>
