<svg width="65" height="25" viewBox="0 0 65 25" fill="none" xmlns="http://www.w3.org/2000/svg">
<path d="M6.89018 23V17.5811C6.89018 15.9407 8.21963 14.6074 9.86395 14.6074C11.5083 14.6074 12.8377 15.9368 12.8377 17.5811V23H17.4402V10.6579L9.78231 3L2 10.7784V23H6.89018Z" stroke="black" stroke-opacity="0.5" stroke-width="3" stroke-miterlimit="10"/>
<path d="M26.068 20V13.424H27.136V16.268H27.172L29.908 13.424H31.156V13.46L27.136 17.528V20H26.068ZM30.148 20V17.684C30.148 17.212 30.004 16.844 29.716 16.58C29.428 16.316 28.952 16.184 28.288 16.184L28.912 15.404C29.416 15.404 29.836 15.496 30.172 15.68C30.516 15.856 30.776 16.112 30.952 16.448C31.128 16.784 31.216 17.188 31.216 17.66V20H30.148ZM35.283 20.12C34.811 20.12 34.403 20.04 34.059 19.88C33.723 19.712 33.463 19.46 33.279 19.124C33.103 18.788 33.015 18.352 33.015 17.816V13.424H34.083V17.756C34.083 18.236 34.203 18.6 34.443 18.848C34.691 19.096 35.047 19.22 35.511 19.22C36.071 19.22 36.503 19.04 36.807 18.68C37.119 18.32 37.275 17.836 37.275 17.228V13.424H38.343V20H37.455L37.407 19.028H37.347C37.203 19.348 36.951 19.612 36.591 19.82C36.239 20.02 35.803 20.12 35.283 20.12ZM34.9863 12.38V11.852C35.1463 11.82 35.3103 11.776 35.4783 11.72C35.6463 11.656 35.7863 11.576 35.8983 11.48C36.0103 11.376 36.0663 11.252 36.0663 11.108C36.0663 11.012 36.0383 10.932 35.9823 10.868C35.9183 10.796 35.8223 10.76 35.6943 10.76C35.6143 10.76 35.5343 10.776 35.4543 10.808C35.3663 10.84 35.2903 10.868 35.2263 10.892L34.9863 10.232C35.1463 10.104 35.3263 10.02 35.5263 9.98C35.7183 9.94 35.8743 9.92 35.9943 9.92C36.3143 9.92 36.5663 10.008 36.7503 10.184C36.9263 10.36 37.0143 10.584 37.0143 10.856C37.0143 11.08 36.9583 11.276 36.8463 11.444C36.7263 11.604 36.5903 11.732 36.4383 11.828L36.3183 11.54H38.7063V12.38H34.9863ZM42.2343 20V15.332C42.2343 14.94 42.1423 14.652 41.9583 14.468C41.7823 14.284 41.4823 14.192 41.0583 14.192C40.7703 14.192 40.4983 14.232 40.2423 14.312C39.9943 14.384 39.7543 14.488 39.5223 14.624V13.664C39.6823 13.584 39.9103 13.504 40.2063 13.424C40.5023 13.344 40.8543 13.304 41.2623 13.304C41.6783 13.304 42.0383 13.364 42.3423 13.484C42.6463 13.604 42.8823 13.804 43.0503 14.084C43.2183 14.356 43.3023 14.72 43.3023 15.176V20H42.2343ZM45.3453 20V13.424H46.4133V16.268H46.4493L49.1853 13.424H50.4333V13.46L46.4133 17.528V20H45.3453ZM49.4253 20V17.684C49.4253 17.212 49.2813 16.844 48.9933 16.58C48.7053 16.316 48.2293 16.184 47.5653 16.184L48.1893 15.404C48.6933 15.404 49.1133 15.496 49.4493 15.68C49.7933 15.856 50.0533 16.112 50.2293 16.448C50.4053 16.784 50.4933 17.188 50.4933 17.66V20H49.4253ZM56.1443 20V15.62C56.1443 15.1 56.0243 14.732 55.7843 14.516C55.5523 14.292 55.1603 14.18 54.6083 14.18C54.2083 14.18 53.8243 14.236 53.4563 14.348C53.0963 14.452 52.7523 14.6 52.4243 14.792V13.796C52.6563 13.676 52.9683 13.564 53.3603 13.46C53.7603 13.356 54.2083 13.304 54.7043 13.304C55.1283 13.304 55.4963 13.352 55.8083 13.448C56.1203 13.536 56.3763 13.672 56.5763 13.856C56.7843 14.04 56.9403 14.276 57.0443 14.564C57.1483 14.844 57.2003 15.176 57.2003 15.56V20H56.1443ZM54.0803 20.12C53.3763 20.12 52.8363 19.96 52.4603 19.64C52.0923 19.312 51.9083 18.844 51.9083 18.236C51.9083 17.572 52.1483 17.06 52.6283 16.7C53.1163 16.34 53.9043 16.128 54.9923 16.064L56.3603 15.98V16.868L55.1363 16.952C54.3203 17.008 53.7563 17.136 53.4443 17.336C53.1403 17.536 52.9883 17.828 52.9883 18.212C52.9883 18.572 53.1003 18.836 53.3243 19.004C53.5563 19.172 53.8763 19.256 54.2843 19.256C54.4203 19.256 54.5443 19.248 54.6563 19.232C54.7683 19.208 54.8763 19.18 54.9803 19.148L55.1483 19.952C54.9963 20.008 54.8283 20.048 54.6443 20.072C54.4683 20.104 54.2803 20.12 54.0803 20.12ZM55.5017 12.38C55.1657 12.38 54.8977 12.332 54.6977 12.236C54.4977 12.14 54.3537 12.016 54.2657 11.864C54.1697 11.712 54.1217 11.552 54.1217 11.384C54.1217 11.264 54.1417 11.136 54.1817 11C54.2137 10.856 54.2577 10.74 54.3137 10.652L55.2137 10.808C55.1977 10.84 55.1817 10.896 55.1657 10.976C55.1497 11.048 55.1417 11.116 55.1417 11.18C55.1417 11.284 55.1737 11.376 55.2377 11.456C55.3017 11.528 55.4097 11.564 55.5617 11.564H58.5978V12.38H55.5017ZM59.0878 20V17.72C59.0878 17.216 59.1998 16.852 59.4238 16.628C59.6478 16.396 59.9318 16.236 60.2758 16.148L60.2878 16.112L58.9678 15.608V15.212C58.9678 14.884 59.0758 14.576 59.2918 14.288C59.5078 13.992 59.8158 13.756 60.2158 13.58C60.6238 13.396 61.1078 13.304 61.6678 13.304C62.1558 13.304 62.6078 13.384 63.0238 13.544C63.4398 13.696 63.7718 13.94 64.0198 14.276C64.2758 14.604 64.4038 15.036 64.4038 15.572V20H63.3358V15.68C63.3358 15.144 63.1718 14.764 62.8438 14.54C62.5238 14.308 62.1278 14.192 61.6558 14.192C61.1678 14.192 60.7798 14.296 60.4918 14.504C60.2038 14.704 60.0598 14.96 60.0598 15.272L61.3558 15.92L61.2598 16.496C60.9638 16.496 60.7038 16.596 60.4798 16.796C60.2638 16.988 60.1558 17.296 60.1558 17.72V20H59.0878Z" fill="#505455"/>
</svg>
