<svg width="60" height="60" viewBox="0 0 60 60" fill="none" xmlns="http://www.w3.org/2000/svg">
<circle cx="30" cy="30" r="30" fill="#57855E"/>
<path d="M33.1604 20.5196L31.1177 17.4987C30.8588 17.1247 30.4272 16.8945 29.9669 16.8945H22.7742C22.3139 16.8945 21.9111 17.1247 21.6234 17.4699L19.4368 20.5484C19.1779 20.9224 18.7463 21.1238 18.286 21.1238H11.4098C10.633 21.1238 10 21.7568 10 22.5336V39.3645C10 40.1413 10.633 40.7742 11.4098 40.7742H41.5902C42.367 40.7742 43 40.1413 43 39.3645V22.5336C43 21.7568 42.367 21.1238 41.5902 21.1238H34.3112C33.8509 21.1526 33.4194 20.9224 33.1604 20.5196Z" fill="#57855E" stroke="white" stroke-width="2" stroke-miterlimit="10"/>
<path d="M38.3389 21.1523V20.2892C38.3389 19.7426 38.7992 19.2822 39.3458 19.2822C39.6335 19.2822 39.8925 19.3973 40.0651 19.5699C40.2377 19.7426 40.3528 20.0015 40.3528 20.2892V21.1236" fill="white"/>
<path d="M28.7012 22.4291H24.2993C24.0691 22.4291 23.8965 22.2565 23.8965 22.0263V19.811C23.8965 19.5808 24.0691 19.4082 24.2993 19.4082H28.7012C28.9314 19.4082 29.104 19.5808 29.104 19.811V22.0263C29.104 22.2277 28.9314 22.4291 28.7012 22.4291Z" stroke="white" stroke-width="2" stroke-miterlimit="10"/>
<path d="M26.6293 36.7749C29.9502 36.7749 32.6424 34.0828 32.6424 30.7619C32.6424 27.4409 29.9502 24.7488 26.6293 24.7488C23.3084 24.7488 20.6162 27.4409 20.6162 30.7619C20.6162 34.0828 23.3084 36.7749 26.6293 36.7749Z" stroke="white" stroke-width="2" stroke-miterlimit="10"/>
<path d="M39.541 18H38.845L41.4906 10.7273H42.2008L44.8464 18H44.1504L41.8706 11.5902H41.8208L39.541 18ZM40.0417 15.2124H43.6497V15.8089H40.0417V15.2124ZM46.0929 18V10.7273H48.4402C48.9563 10.7273 49.3871 10.8208 49.7328 11.0078C50.0808 11.1925 50.3424 11.4493 50.5176 11.7784C50.6951 12.1051 50.7839 12.4804 50.7839 12.9041C50.7839 13.3279 50.6951 13.7019 50.5176 14.0263C50.3424 14.3506 50.082 14.6039 49.7363 14.7862C49.3907 14.9685 48.9622 15.0597 48.4508 15.0597H46.4515V14.4524H48.4331C48.8118 14.4524 49.1267 14.3897 49.3777 14.2642C49.631 14.1387 49.8192 13.96 49.9423 13.728C50.0678 13.496 50.1305 13.2214 50.1305 12.9041C50.1305 12.5869 50.0678 12.3099 49.9423 12.0732C49.8168 11.834 49.6274 11.6494 49.3741 11.5192C49.1232 11.389 48.8059 11.3239 48.4224 11.3239H46.7569V18H46.0929ZM49.2995 14.7188L51.0893 18H50.3223L48.5502 14.7188H49.2995Z" fill="white"/>
</svg>
