<svg width="53" height="52" viewBox="0 0 53 52" fill="none" xmlns="http://www.w3.org/2000/svg">
<path d="M24.1656 49.0278L18.4077 37.35C18.0377 36.6101 17.3208 36.0782 16.5115 35.9626L3.63124 34.0895C1.55005 33.7889 0.740698 31.2452 2.22065 29.7884L11.5398 20.7005C12.141 20.1224 12.4185 19.2899 12.2566 18.4575L10.0598 5.62347C9.71294 3.5654 11.8635 1.99295 13.7366 2.96417L25.2756 9.02274C26.0156 9.41586 26.8943 9.41586 27.6343 9.02274L39.1733 2.96417C41.0233 1.99295 43.1969 3.56541 42.8501 5.62347L40.6533 18.4575C40.5145 19.2668 40.792 20.1224 41.3701 20.7005L50.6661 29.7884C52.1692 31.2452 51.3367 33.7889 49.2555 34.0895L36.3753 35.9626C35.5428 36.0782 34.8491 36.6101 34.4791 37.35L28.7211 49.0278C27.773 50.9009 25.0906 50.9009 24.1656 49.0278Z" stroke="white" stroke-width="2" stroke-linecap="round" stroke-linejoin="round"/>
<path d="M26.4326 31.8701L26.4326 1.64663" stroke="white" stroke-width="2" stroke-linecap="round" stroke-linejoin="round"/>
<path d="M26.4325 31.8701L35.2197 22.6666" stroke="white" stroke-width="2" stroke-linecap="round" stroke-linejoin="round"/>
<path d="M26.4326 31.8701L17.6685 22.6666" stroke="white" stroke-width="2" stroke-linecap="round" stroke-linejoin="round"/>
</svg>
