<svg width="53" height="52" viewBox="0 0 53 52" fill="none" xmlns="http://www.w3.org/2000/svg">
<path d="M28.7318 2.86965L34.4898 14.5474C34.8598 15.2874 35.5766 15.8193 36.386 15.9349L49.2662 17.808C51.3474 18.1086 52.1568 20.6522 50.6768 22.1091L41.3577 31.1969C40.7565 31.775 40.479 32.6075 40.6409 33.44L42.8377 46.274C43.1845 48.3321 41.034 49.9045 39.1609 48.9333L27.6219 42.8747C26.8819 42.4816 26.0032 42.4816 25.2632 42.8747L13.7241 48.9333C11.8742 49.9045 9.70052 48.3321 10.0474 46.274L12.2442 33.44C12.3829 32.6306 12.1054 31.775 11.5273 31.1969L2.23136 22.1091C0.72828 20.6522 1.56076 18.1086 3.64194 17.808L16.5222 15.9349C17.3547 15.8193 18.0484 15.2874 18.4184 14.5474L24.1763 2.86965C25.1244 0.996576 27.8069 0.996576 28.7318 2.86965Z" stroke="white" stroke-width="2" stroke-linecap="round" stroke-linejoin="round"/>
<path d="M26.4648 20.0273V50.2508" stroke="white" stroke-width="2" stroke-linecap="round" stroke-linejoin="round"/>
<path d="M26.465 20.0273L17.6777 29.2308" stroke="white" stroke-width="2" stroke-linecap="round" stroke-linejoin="round"/>
<path d="M26.4648 20.0273L35.229 29.2308" stroke="white" stroke-width="2" stroke-linecap="round" stroke-linejoin="round"/>
</svg>
