<svg width="79" height="79" viewBox="0 0 79 79" fill="none" xmlns="http://www.w3.org/2000/svg">
<circle cx="39.4489" cy="39.4489" r="39.4486" transform="rotate(-180 39.4489 39.4489)" fill="black"/>
<path d="M37.1656 63.0278L31.4077 51.35C31.0377 50.6101 30.3208 50.0782 29.5115 49.9626L16.6312 48.0895C14.5501 47.7889 13.7407 45.2452 15.2207 43.7884L24.5398 34.7005C25.141 34.1224 25.4185 33.2899 25.2566 32.4575L23.0598 19.6235C22.7129 17.5654 24.8635 15.9929 26.7366 16.9642L38.2756 23.0227C39.0156 23.4159 39.8943 23.4159 40.6343 23.0227L52.1733 16.9642C54.0233 15.993 56.1969 17.5654 55.8501 19.6235L53.6533 32.4575C53.5145 33.2668 53.792 34.1224 54.3701 34.7005L63.6661 43.7884C65.1692 45.2452 64.3367 47.7889 62.2555 48.0895L49.3753 49.9626C48.5428 50.0782 47.8491 50.6101 47.4791 51.35L41.7211 63.0278C40.773 64.9009 38.0906 64.9009 37.1656 63.0278Z" stroke="white" stroke-width="2" stroke-linecap="round" stroke-linejoin="round"/>
<path d="M39.4326 45.8701L39.4326 15.6466" stroke="white" stroke-width="2" stroke-linecap="round" stroke-linejoin="round"/>
<path d="M39.4325 45.8701L48.2197 36.6666" stroke="white" stroke-width="2" stroke-linecap="round" stroke-linejoin="round"/>
<path d="M39.4326 45.8701L30.6685 36.6666" stroke="white" stroke-width="2" stroke-linecap="round" stroke-linejoin="round"/>
</svg>
