<svg width="79" height="79" viewBox="0 0 79 79" fill="none" xmlns="http://www.w3.org/2000/svg">
<circle cx="39.4486" cy="39.4486" r="39.4486" fill="#57855E"/>
<path d="M41.7318 15.8696L47.4898 27.5474C47.8598 28.2874 48.5766 28.8193 49.386 28.9349L62.2662 30.808C64.3474 31.1086 65.1568 33.6522 63.6768 35.1091L54.3577 44.1969C53.7565 44.775 53.479 45.6075 53.6409 46.44L55.8377 59.274C56.1845 61.3321 54.034 62.9045 52.1609 61.9333L40.6219 55.8747C39.8819 55.4816 39.0032 55.4816 38.2632 55.8747L26.7241 61.9333C24.8742 62.9045 22.7005 61.3321 23.0474 59.274L25.2442 46.44C25.3829 45.6306 25.1054 44.775 24.5273 44.1969L15.2314 35.1091C13.7283 33.6522 14.5608 31.1086 16.6419 30.808L29.5222 28.9349C30.3547 28.8193 31.0484 28.2874 31.4184 27.5474L37.1763 15.8696C38.1244 13.9966 40.8069 13.9966 41.7318 15.8696Z" stroke="white" stroke-width="2" stroke-linecap="round" stroke-linejoin="round"/>
<path d="M39.4648 33.0273V63.2508" stroke="white" stroke-width="2" stroke-linecap="round" stroke-linejoin="round"/>
<path d="M39.465 33.0273L30.6777 42.2308" stroke="white" stroke-width="2" stroke-linecap="round" stroke-linejoin="round"/>
<path d="M39.4648 33.0273L48.229 42.2308" stroke="white" stroke-width="2" stroke-linecap="round" stroke-linejoin="round"/>
</svg>
