<svg width="80" height="80" viewBox="0 0 80 80" fill="none" xmlns="http://www.w3.org/2000/svg">
<circle cx="40" cy="40" r="40" fill="#072024"/>
<path d="M42 22.0909L41.6591 47.1818L37.7045 47.1818L37.3636 22.0909L42 22.0909ZM39.6818 57.2727C38.8409 57.2727 38.1193 56.9716 37.517 56.3693C36.9148 55.767 36.6136 55.0455 36.6136 54.2045C36.6136 53.3636 36.9148 52.642 37.517 52.0398C38.1193 51.4375 38.8409 51.1364 39.6818 51.1364C40.5227 51.1364 41.2443 51.4375 41.8466 52.0398C42.4489 52.642 42.75 53.3636 42.75 54.2045C42.75 54.7614 42.608 55.2727 42.3239 55.7386C42.0511 56.2045 41.6818 56.5795 41.2159 56.8636C40.7614 57.1364 40.25 57.2727 39.6818 57.2727Z" fill="white"/>
</svg>
