<svg width="84" height="84" viewBox="0 0 84 84" fill="none" xmlns="http://www.w3.org/2000/svg">
<circle cx="42" cy="42" r="42" fill="black"/>
<path d="M52.8554 28.7687L49.6048 23.9614C49.1928 23.3663 48.506 23 47.7735 23H36.3277C35.5952 23 34.9542 23.3663 34.4964 23.9157L31.0169 28.8145C30.6048 29.4096 29.9181 29.7301 29.1855 29.7301H18.2434C17.0072 29.7301 16 30.7373 16 31.9735V58.7566C16 59.9928 17.0072 61 18.2434 61H66.2699C67.506 61 68.5133 59.9928 68.5133 58.7566V31.9735C68.5133 30.7373 67.506 29.7301 66.2699 29.7301H54.6867C53.9542 29.7759 53.2675 29.4096 52.8554 28.7687Z" fill="black" stroke="white" stroke-width="2" stroke-miterlimit="10"/>
<path d="M61.0967 29.7757V28.4022C61.0967 27.5323 61.8292 26.7998 62.6991 26.7998C63.1569 26.7998 63.569 26.9829 63.8437 27.2576C64.1184 27.5323 64.3015 27.9444 64.3015 28.4022V29.7299" fill="white"/>
<path d="M45.7591 31.8072H38.7542C38.388 31.8072 38.1133 31.5325 38.1133 31.1663V27.641C38.1133 27.2747 38.388 27 38.7542 27H45.7591C46.1253 27 46.4 27.2747 46.4 27.641V31.1663C46.4 31.4867 46.1253 31.8072 45.7591 31.8072Z" stroke="white" stroke-width="2" stroke-miterlimit="10"/>
<path d="M42.4622 54.6359C47.7469 54.6359 52.0309 50.3518 52.0309 45.0672C52.0309 39.7826 47.7469 35.4985 42.4622 35.4985C37.1776 35.4985 32.8936 39.7826 32.8936 45.0672C32.8936 50.3518 37.1776 54.6359 42.4622 54.6359Z" stroke="white" stroke-width="2" stroke-miterlimit="10"/>
</svg>
