<svg width="80" height="80" viewBox="0 0 80 80" fill="none" xmlns="http://www.w3.org/2000/svg">
<circle cx="40" cy="40" r="40" fill="#ACC893"/>
<path d="M39.5 22.4141V56.5391M39.5 22.4141C36.434 20.3771 32.2708 19.125 27.6875 19.125C23.1042 19.125 18.941 20.3771 15.875 22.4141V56.5391C18.941 54.5021 23.1042 53.25 27.6875 53.25C32.2708 53.25 36.434 54.5021 39.5 56.5391M39.5 22.4141C42.566 20.3771 46.7292 19.125 51.3125 19.125C55.8984 19.125 60.059 20.3771 63.125 22.4141V56.5391C60.059 54.5021 55.8984 53.25 51.3125 53.25C46.7292 53.25 42.566 54.5021 39.5 56.5391" stroke="white" stroke-width="2" stroke-linecap="round" stroke-linejoin="round"/>
</svg>
