{
    "asset" : {
        "generator" : "Khronos glTF Blender I/O v3.4.50",
        "version" : "2.0"
    },
    "extensionsUsed" : [
        "KHR_materials_specular",
        "KHR_materials_ior",
        "KHR_texture_transform",
        "KHR_materials_transmission"
    ],
    "extensionsRequired" : [
        "KHR_texture_transform"
    ],
    "scene" : 0,
    "scenes" : [
        {
            "name" : "Scene",
            "nodes" : [
                0,
                1
            ]
        }
    ],
    "nodes" : [
        {
            "mesh" : 0,
            "name" : "Crate",
            "rotation" : [
                0,
                -0.35000067949295044,
                0,
                0.9367494583129883
            ],
            "scale" : [
                0.3906131088733673,
                0.11269345879554749,
                0.6404454708099365
            ],
            "translation" : [
                -0.12204098701477051,
                -0.214896559715271,
                0.20053954422473907
            ]
        },
        {
            "mesh" : 1,
            "name" : "Milk",
            "rotation" : [
                0,
                -0.28396761417388916,
                0,
                0.9588338732719421
            ],
            "scale" : [
                0.160199373960495,
                0.3205195665359497,
                0.15252497792243958
            ],
            "translation" : [
                0.4274306297302246,
                -0.07468834519386292,
                -0.15906290709972382
            ]
        }
    ],
    "materials" : [
        {
            "doubleSided" : true,
            "name" : "Wood.001",
            "pbrMetallicRoughness" : {
                "baseColorTexture" : {
                    "index" : 0
                },
                "metallicFactor" : 0,
                "roughnessFactor" : 0.5
            }
        },
        {
            "doubleSided" : true,
            "extensions" : {
                "KHR_materials_specular" : {
                    "specularColorFactor" : [
                        0.366482544268505,
                        0.366482544268505,
                        0.366482544268505
                    ]
                },
                "KHR_materials_ior" : {
                    "ior" : 1.4500000476837158
                }
            },
            "name" : "Wood",
            "pbrMetallicRoughness" : {
                "baseColorTexture" : {
                    "extensions" : {
                        "KHR_texture_transform" : {
                            "offset" : [
                                3.3999998569488525,
                                -1.1000001430511475
                            ],
                            "scale" : [
                                0.5000000596046448,
                                2.1000001430511475
                            ]
                        }
                    },
                    "index" : 1
                },
                "metallicFactor" : 0,
                "roughnessFactor" : 0.7272727489471436
            }
        },
        {
            "doubleSided" : true,
            "extensions" : {
                "KHR_materials_specular" : {
                    "specularColorFactor" : [
                        0.5694992807393852,
                        0.5694992807393852,
                        0.5694992807393852
                    ]
                },
                "KHR_materials_ior" : {
                    "ior" : 1.4500000476837158
                }
            },
            "name" : "Material",
            "pbrMetallicRoughness" : {
                "baseColorFactor" : [
                    0.29568856954574585,
                    0.01563340239226818,
                    0.005409351550042629,
                    1
                ],
                "metallicFactor" : 0,
                "roughnessFactor" : 0.6968504190444946
            }
        },
        {
            "doubleSided" : true,
            "extensions" : {
                "KHR_materials_specular" : {
                    "specularColorFactor" : [
                        0.4850504532593605,
                        0.4850504532593605,
                        0.4850504532593605
                    ]
                },
                "KHR_materials_ior" : {
                    "ior" : 1.4500000476837158
                }
            },
            "name" : "Milk White",
            "pbrMetallicRoughness" : {
                "metallicFactor" : 0,
                "roughnessFactor" : 0.581818163394928
            }
        },
        {
            "doubleSided" : true,
            "extensions" : {
                "KHR_materials_transmission" : {
                    "transmissionFactor" : 0.19090908765792847
                },
                "KHR_materials_specular" : {
                    "specularColorFactor" : [
                        0.6531278609973893,
                        0.6531278609973893,
                        0.6531278609973893
                    ]
                },
                "KHR_materials_ior" : {
                    "ior" : 1.4500000476837158
                }
            },
            "name" : "Plastic Grey",
            "pbrMetallicRoughness" : {
                "baseColorFactor" : [
                    0.14525461196899414,
                    0.14525461196899414,
                    0.14525461196899414,
                    1
                ],
                "metallicFactor" : 0,
                "roughnessFactor" : 0.8545454740524292
            }
        },
        {
            "doubleSided" : true,
            "extensions" : {
                "KHR_materials_specular" : {
                    "specularColorFactor" : [
                        1.4120357372345076,
                        1.4120357372345076,
                        1.4120357372345076
                    ]
                },
                "KHR_materials_ior" : {
                    "ior" : 1.4500000476837158
                }
            },
            "name" : "KU Green",
            "pbrMetallicRoughness" : {
                "baseColorFactor" : [
                    0.031487204134464264,
                    0.10849039256572723,
                    0.029766304418444633,
                    1
                ],
                "metallicFactor" : 0,
                "roughnessFactor" : 0.15909090638160706
            }
        },
        {
            "doubleSided" : true,
            "extensions" : {
                "KHR_materials_specular" : {
                    "specularColorFactor" : [
                        0.452713718683689,
                        0.452713718683689,
                        0.452713718683689
                    ]
                },
                "KHR_materials_ior" : {
                    "ior" : 1.4500000476837158
                }
            },
            "name" : "Mint Green",
            "pbrMetallicRoughness" : {
                "baseColorFactor" : [
                    0.37674686312675476,
                    0.744700014591217,
                    0.38153308629989624,
                    1
                ],
                "metallicFactor" : 0,
                "roughnessFactor" : 0.5727272629737854
            }
        }
    ],
    "meshes" : [
        {
            "name" : "Cube.001",
            "primitives" : [
                {
                    "attributes" : {
                        "POSITION" : 0,
                        "TEXCOORD_0" : 1,
                        "NORMAL" : 2
                    },
                    "indices" : 3,
                    "material" : 0
                },
                {
                    "attributes" : {
                        "POSITION" : 4,
                        "TEXCOORD_0" : 5,
                        "NORMAL" : 6
                    },
                    "indices" : 7,
                    "material" : 1
                },
                {
                    "attributes" : {
                        "POSITION" : 8,
                        "TEXCOORD_0" : 9,
                        "NORMAL" : 10
                    },
                    "indices" : 11,
                    "material" : 2
                }
            ]
        },
        {
            "name" : "Cylinder.010",
            "primitives" : [
                {
                    "attributes" : {
                        "POSITION" : 12,
                        "TEXCOORD_0" : 13,
                        "NORMAL" : 14
                    },
                    "indices" : 15,
                    "material" : 3
                },
                {
                    "attributes" : {
                        "POSITION" : 16,
                        "TEXCOORD_0" : 17,
                        "NORMAL" : 18
                    },
                    "indices" : 19,
                    "material" : 4
                },
                {
                    "attributes" : {
                        "POSITION" : 20,
                        "TEXCOORD_0" : 21,
                        "NORMAL" : 22
                    },
                    "indices" : 23,
                    "material" : 5
                },
                {
                    "attributes" : {
                        "POSITION" : 24,
                        "TEXCOORD_0" : 25,
                        "NORMAL" : 26
                    },
                    "indices" : 27,
                    "material" : 6
                }
            ]
        }
    ],
    "textures" : [
        {
            "sampler" : 0,
            "source" : 0
        },
        {
            "sampler" : 0,
            "source" : 0
        }
    ],
    "images" : [
        {
            "bufferView" : 4,
            "mimeType" : "image/jpeg",
            "name" : "wood"
        }
    ],
    "accessors" : [
        {
            "bufferView" : 0,
            "componentType" : 5126,
            "count" : 256,
            "max" : [
                0.984176754951477,
                3.3410234451293945,
                0.8101649284362793
            ],
            "min" : [
                -0.984176754951477,
                -1,
                -1.2754521369934082
            ],
            "type" : "VEC3"
        },
        {
            "bufferView" : 1,
            "componentType" : 5126,
            "count" : 256,
            "type" : "VEC2"
        },
        {
            "bufferView" : 2,
            "componentType" : 5126,
            "count" : 256,
            "type" : "VEC3"
        },
        {
            "bufferView" : 3,
            "componentType" : 5123,
            "count" : 384,
            "type" : "SCALAR"
        },
        {
            "bufferView" : 5,
            "componentType" : 5126,
            "count" : 312,
            "max" : [
                0.9237355589866638,
                3.349705219268799,
                0.7855629920959473
            ],
            "min" : [
                -0.9217381477355957,
                -1.0730715990066528,
                -1.2398724555969238
            ],
            "type" : "VEC3"
        },
        {
            "bufferView" : 6,
            "componentType" : 5126,
            "count" : 312,
            "type" : "VEC2"
        },
        {
            "bufferView" : 7,
            "componentType" : 5126,
            "count" : 312,
            "type" : "VEC3"
        },
        {
            "bufferView" : 8,
            "componentType" : 5123,
            "count" : 468,
            "type" : "SCALAR"
        },
        {
            "bufferView" : 9,
            "componentType" : 5126,
            "count" : 102,
            "max" : [
                0.8305677771568298,
                2.993405342102051,
                -1.2688201665878296
            ],
            "min" : [
                -0.025616616010665894,
                1.739567756652832,
                -1.312703013420105
            ],
            "type" : "VEC3"
        },
        {
            "bufferView" : 10,
            "componentType" : 5126,
            "count" : 102,
            "type" : "VEC2"
        },
        {
            "bufferView" : 11,
            "componentType" : 5126,
            "count" : 102,
            "type" : "VEC3"
        },
        {
            "bufferView" : 12,
            "componentType" : 5123,
            "count" : 144,
            "type" : "SCALAR"
        },
        {
            "bufferView" : 13,
            "componentType" : 5126,
            "count" : 2432,
            "max" : [
                0.9871060848236084,
                1.3440430164337158,
                7.257970809936523
            ],
            "min" : [
                -4.053818702697754,
                -0.7505772113800049,
                -1.3554153442382812
            ],
            "type" : "VEC3"
        },
        {
            "bufferView" : 14,
            "componentType" : 5126,
            "count" : 2432,
            "type" : "VEC2"
        },
        {
            "bufferView" : 15,
            "componentType" : 5126,
            "count" : 2432,
            "type" : "VEC3"
        },
        {
            "bufferView" : 16,
            "componentType" : 5123,
            "count" : 4104,
            "type" : "SCALAR"
        },
        {
            "bufferView" : 17,
            "componentType" : 5126,
            "count" : 1728,
            "max" : [
                0.9871060848236084,
                1.414517879486084,
                7.257970809936523
            ],
            "min" : [
                -4.053818702697754,
                -0.46024656295776367,
                -1.3554153442382812
            ],
            "type" : "VEC3"
        },
        {
            "bufferView" : 18,
            "componentType" : 5126,
            "count" : 1728,
            "type" : "VEC2"
        },
        {
            "bufferView" : 19,
            "componentType" : 5126,
            "count" : 1728,
            "type" : "VEC3"
        },
        {
            "bufferView" : 20,
            "componentType" : 5123,
            "count" : 2640,
            "type" : "SCALAR"
        },
        {
            "bufferView" : 21,
            "componentType" : 5126,
            "count" : 1118,
            "max" : [
                0.42567354440689087,
                1.5308854579925537,
                6.66982889175415
            ],
            "min" : [
                -3.490283966064453,
                1.3917911052703857,
                -0.7824536561965942
            ],
            "type" : "VEC3"
        },
        {
            "bufferView" : 22,
            "componentType" : 5126,
            "count" : 1118,
            "type" : "VEC2"
        },
        {
            "bufferView" : 23,
            "componentType" : 5126,
            "count" : 1118,
            "type" : "VEC3"
        },
        {
            "bufferView" : 24,
            "componentType" : 5123,
            "count" : 1800,
            "type" : "SCALAR"
        },
        {
            "bufferView" : 25,
            "componentType" : 5126,
            "count" : 352,
            "max" : [
                0.9871060848236084,
                0.7471430897712708,
                7.257970809936523
            ],
            "min" : [
                -4.053737163543701,
                -0.43684646487236023,
                -1.3552653789520264
            ],
            "type" : "VEC3"
        },
        {
            "bufferView" : 26,
            "componentType" : 5126,
            "count" : 352,
            "type" : "VEC2"
        },
        {
            "bufferView" : 27,
            "componentType" : 5126,
            "count" : 352,
            "type" : "VEC3"
        },
        {
            "bufferView" : 28,
            "componentType" : 5123,
            "count" : 528,
            "type" : "SCALAR"
        }
    ],
    "bufferViews" : [
        {
            "buffer" : 0,
            "byteLength" : 3072,
            "byteOffset" : 0,
            "target" : 34962
        },
        {
            "buffer" : 0,
            "byteLength" : 2048,
            "byteOffset" : 3072,
            "target" : 34962
        },
        {
            "buffer" : 0,
            "byteLength" : 3072,
            "byteOffset" : 5120,
            "target" : 34962
        },
        {
            "buffer" : 0,
            "byteLength" : 768,
            "byteOffset" : 8192,
            "target" : 34963
        },
        {
            "buffer" : 0,
            "byteLength" : 65492,
            "byteOffset" : 8960
        },
        {
            "buffer" : 0,
            "byteLength" : 3744,
            "byteOffset" : 74452,
            "target" : 34962
        },
        {
            "buffer" : 0,
            "byteLength" : 2496,
            "byteOffset" : 78196,
            "target" : 34962
        },
        {
            "buffer" : 0,
            "byteLength" : 3744,
            "byteOffset" : 80692,
            "target" : 34962
        },
        {
            "buffer" : 0,
            "byteLength" : 936,
            "byteOffset" : 84436,
            "target" : 34963
        },
        {
            "buffer" : 0,
            "byteLength" : 1224,
            "byteOffset" : 85372,
            "target" : 34962
        },
        {
            "buffer" : 0,
            "byteLength" : 816,
            "byteOffset" : 86596,
            "target" : 34962
        },
        {
            "buffer" : 0,
            "byteLength" : 1224,
            "byteOffset" : 87412,
            "target" : 34962
        },
        {
            "buffer" : 0,
            "byteLength" : 288,
            "byteOffset" : 88636,
            "target" : 34963
        },
        {
            "buffer" : 0,
            "byteLength" : 29184,
            "byteOffset" : 88924,
            "target" : 34962
        },
        {
            "buffer" : 0,
            "byteLength" : 19456,
            "byteOffset" : 118108,
            "target" : 34962
        },
        {
            "buffer" : 0,
            "byteLength" : 29184,
            "byteOffset" : 137564,
            "target" : 34962
        },
        {
            "buffer" : 0,
            "byteLength" : 8208,
            "byteOffset" : 166748,
            "target" : 34963
        },
        {
            "buffer" : 0,
            "byteLength" : 20736,
            "byteOffset" : 174956,
            "target" : 34962
        },
        {
            "buffer" : 0,
            "byteLength" : 13824,
            "byteOffset" : 195692,
            "target" : 34962
        },
        {
            "buffer" : 0,
            "byteLength" : 20736,
            "byteOffset" : 209516,
            "target" : 34962
        },
        {
            "buffer" : 0,
            "byteLength" : 5280,
            "byteOffset" : 230252,
            "target" : 34963
        },
        {
            "buffer" : 0,
            "byteLength" : 13416,
            "byteOffset" : 235532,
            "target" : 34962
        },
        {
            "buffer" : 0,
            "byteLength" : 8944,
            "byteOffset" : 248948,
            "target" : 34962
        },
        {
            "buffer" : 0,
            "byteLength" : 13416,
            "byteOffset" : 257892,
            "target" : 34962
        },
        {
            "buffer" : 0,
            "byteLength" : 3600,
            "byteOffset" : 271308,
            "target" : 34963
        },
        {
            "buffer" : 0,
            "byteLength" : 4224,
            "byteOffset" : 274908,
            "target" : 34962
        },
        {
            "buffer" : 0,
            "byteLength" : 2816,
            "byteOffset" : 279132,
            "target" : 34962
        },
        {
            "buffer" : 0,
            "byteLength" : 4224,
            "byteOffset" : 281948,
            "target" : 34962
        },
        {
            "buffer" : 0,
            "byteLength" : 1056,
            "byteOffset" : 286172,
            "target" : 34963
        }
    ],
    "samplers" : [
        {
            "magFilter" : 9729,
            "minFilter" : 9987
        }
    ],
    "buffers" : [
        {
            "byteLength" : 287228,
            "uri" : "data:application/octet-stream;base64,"
        }
    ]
}
